<?xml version="1.0" ?><svg id="Layer_3" style="enable-background:new 0 0 64 64;" version="1.0" viewBox="0 0 64 64" xml:space="preserve" xmlns="http://www.w3.org/2000/svg" xmlns:xlink="http://www.w3.org/1999/xlink"><g><path d="M21.98,27.21c-3.55,0-6.43,3.18-6.43,7.09c0,3.91,2.88,7.09,6.43,7.09s6.43-3.18,6.43-7.08c0.03-1.98-0.72-3.88-2.05-5.23   C25.17,27.87,23.61,27.21,21.98,27.21z M21.98,39.39c-2.44,0-4.43-2.28-4.43-5.09c0-2.81,1.99-5.09,4.43-5.09   c1.1,0,2.15,0.45,2.96,1.28c0.96,0.97,1.49,2.35,1.47,3.81C26.41,37.1,24.42,39.39,21.98,39.39z"/><path d="M53.87,12.33c-0.12-0.2-0.3-0.35-0.51-0.45c-4-1.83-8.22-3.14-12.54-3.89c-0.49-0.09-1,0.15-1.25,0.59   c-0.4,0.71-0.86,1.64-1.27,2.54c-4.22-0.56-8.45-0.57-12.59,0c-0.37-0.81-0.84-1.73-1.3-2.55c-0.24-0.42-0.73-0.66-1.23-0.58   c-4.32,0.74-8.55,2.05-12.53,3.89c-0.23,0.1-0.41,0.26-0.51,0.43C2.83,23.21-0.14,34.67,1.04,47.34c0.03,0.33,0.19,0.63,0.48,0.86   c4.76,3.49,9.79,6.04,15.39,7.78c0.48,0.15,0.98-0.01,1.31-0.43c1.21-1.66,2.28-3.39,3.17-5.16c0.15-0.3,0.17-0.66,0.05-0.97   c-0.04-0.12-0.11-0.22-0.18-0.32c7.06,2.15,14.42,2.15,21.44,0.01c-0.07,0.09-0.13,0.2-0.17,0.31c-0.12,0.32-0.1,0.67,0.05,0.97   c0.91,1.76,1.97,3.49,3.16,5.14c0.23,0.32,0.59,0.5,0.97,0.5c0.12,0,0.24-0.02,0.35-0.05c5.6-1.73,10.64-4.28,15.41-7.78   c0.27-0.2,0.45-0.51,0.48-0.85C64.17,34.78,61.11,22.99,53.87,12.33z M60.99,46.8c-4.34,3.14-8.92,5.46-13.97,7.09   c-0.82-1.18-1.58-2.4-2.25-3.63c1.4-0.57,2.72-1.22,4.01-1.98c0.35-0.2,0.57-0.56,0.59-0.96c0.02-0.4-0.16-0.79-0.48-1.02   c-0.31-0.23-0.61-0.47-0.91-0.71c-0.36-0.29-0.86-0.35-1.25-0.16c-9.47,4.37-19.96,4.37-29.54,0c-0.41-0.18-0.89-0.12-1.24,0.17   c-0.29,0.24-0.59,0.48-0.89,0.7c-0.32,0.24-0.5,0.62-0.48,1.02c0.02,0.4,0.24,0.76,0.6,0.97c1.35,0.78,2.67,1.43,4.01,1.98   c-0.67,1.24-1.43,2.46-2.25,3.63C11.89,52.26,7.31,49.93,3,46.8c-1.04-11.97,1.79-22.82,8.67-33.2c3.61-1.64,7.41-2.83,11.28-3.54   c0.47,0.87,0.92,1.8,1.23,2.54c0.18,0.42,0.62,0.67,1.07,0.6c4.44-0.68,8.99-0.68,13.52,0c0.45,0.07,0.89-0.18,1.07-0.6   c0.36-0.85,0.8-1.78,1.21-2.54c3.88,0.72,7.67,1.91,11.27,3.54C59.24,23.87,62.08,34.73,60.99,46.8z"/><path d="M42.06,27.21c-3.55,0-6.43,3.18-6.43,7.09c0,3.91,2.88,7.09,6.43,7.09c3.61,0,6.43-3.11,6.43-7.08   c0.03-1.98-0.72-3.88-2.05-5.23C45.25,27.87,43.69,27.21,42.06,27.21z M42.06,39.39c-2.44,0-4.43-2.28-4.43-5.09   c0-2.81,1.99-5.09,4.43-5.09c1.1,0,2.15,0.45,2.96,1.28c0.96,0.97,1.49,2.35,1.47,3.81C46.49,37.15,44.54,39.39,42.06,39.39z"/></g></svg>